<svg width="800px" height="800px" viewBox="0 0 64 64" 
ariaHidden="true" role="img" 
class="iconify iconify--emojione" 
preserveAspectRatio="xMidYMid meet" xmlns="http://www.w3.org/2000/svg" xmlnsBx="https://boxy-svg.com">
  <g fill="#ffca28">
    <path d="M20.5 59.7l7-7.2c-2.5-.5-4.8-1.5-6.9-2.9l-.1 10.1"/>
    <path d="M43.5 4.3l-7 7.2c2.5.5 4.8 1.5 6.9 2.9l.1-10.1"/>
    <path d="M11.5 36.5l-7.2 7l10.1-.1C13 41.3 12 39 11.5 36.5"/>
    <path d="M52.5 27.5l7.2-7l-10.1.1c1.4 2.1 2.4 4.4 2.9 6.9"/>
    <path d="M14.4 20.6l-10.1-.1l7.2 7c.5-2.5 1.5-4.8 2.9-6.9"/>
    <path d="M49.6 43.4l10.1.1l-7.2-7c-.5 2.5-1.5 4.8-2.9 6.9"/>
    <path d="M27.5 11.5l-7-7.2l.1 10.1c2.1-1.4 4.4-2.4 6.9-2.9"/>
    <path d="M36.5 52.5l7 7.2l-.1-10.1C41.3 51 39 52 36.5 52.5"/>
    <path d="M14.8 44l-4 9.3l9.3-4C18 47.8 16.2 46 14.8 44"/>
    <path d="M49.2 20l4-9.3l-9.3 4c2.1 1.5 3.9 3.3 5.3 5.3"/>
    <path d="M11 32c0-1.3.1-2.5.4-3.7L2 32l9.4 3.7c-.3-1.2-.4-2.4-.4-3.7"/>
    <path d="M62 32l-9.4-3.7c.2 1.2.4 2.5.4 3.7c0 1.3-.1 2.5-.4 3.7L62 32"/>
    <path d="M20 14.8l-9.3-4l4 9.3c1.5-2.1 3.3-3.9 5.3-5.3"/>
    <path d="M44 49.2l9.3 4l-4-9.3C47.8 46 46 47.8 44 49.2"/>
    <path d="M35.7 11.4L32 2l-3.7 9.4c1.2-.2 2.5-.4 3.7-.4c1.3 0 2.5.1 3.7.4"/>
    <path d="M28.3 52.6L32 62l3.7-9.4c-1.2.3-2.4.4-3.7.4c-1.3 0-2.5-.1-3.7-.4"/>
    <path d="M32 13c-10.5 0-19 8.5-19 19s8.5 19 19 19s19-8.5 19-19s-8.5-19-19-19M20.4 30.7c1.2-3.2 3-4.9 4.7-4.9s3.5 1.6 4.7 4.9c.1.3-.5.9-.8.6c-1.1-1.2-2.5-1.7-3.9-1.7s-2.8.5-3.9 1.7c-.4.4-1-.2-.8-.6m20.3 7.5C39.1 40.8 36 43 32 43c-4 0-7.2-2.3-8.7-4.8c-.4-.7.1-1.4.8-1c5.1 3.6 10.8 3.6 15.9 0c.6-.4 1.1.4.7 1m2.2-6.9c-1.1-1.2-2.5-1.7-3.9-1.7s-2.8.5-3.9 1.7c-.3.3-.9-.3-.8-.6c1.2-3.2 3-4.9 4.7-4.9c1.8 0 3.5 1.6 4.7 4.9c.1.4-.5 1-.8.6">
    </path>
    <path d="M 32 13 C 21.5 13 13 21.5 13 32 C 13 42.5 21.5 51 32 51 C 42.5 51 51 42.5 51 32 C 51 21.5 42.5 13 32 13 M 36.5 40.15 C 36.5 40.15 36 43 32 43 C 28 43 26.8 39.473 27.5 39.873 C 32.672 42.028 31.111 42.028 36.5 40.017" >
    </path>
    <g transform="matrix(0.137404, 0, 0, 0.135661, 55.683784, -1.750002)" >
      <path style="fill: rgb(0, 0, 0);" d="M -63.477 184.404 C -57.43 199.165 -282.311 201.297 -276.264 186.536 L -281.715 185.608 C -283.562 191.326 -282.762 188.823 -283.046 192.491 C -283.154 193.887 -279.48 221.204 -279.48 222.243 C -279.48 248.296 -258.1 269.42 -232.127 269.42 C -206.424 269.42 -185.309 248.874 -184.876 223.2 L -184.649 223.2 C -184.649 214.59 -177.842 207.979 -169.475 207.979 C -161.108 207.979 -154.301 214.59 -154.301 223.2 L -154.153 223.2 C -153.718 248.877 -132.844 269.496 -107.139 269.496 C -81.166 269.496 -60.104 248.297 -60.104 222.244 C -60.104 215.848 -60.104 201.748 -60.104 190.673 L -60.124 183.517 L -63.477 184.404 Z" />
      <path style="fill: rgb(255, 255, 255);" d="M -105.137 301.09 L -116.948 290.297 C -130.28 304.885 -149.246 313.251 -168.984 313.251 C -188.722 313.251 -207.687 304.885 -221.018 290.297 L -232.829 301.09 C -216.475 318.986 -193.205 329.251 -168.984 329.251 C -144.763 329.251 -121.492 318.986 -105.137 301.09 Z"/>
    </g>
  </g>
  
</svg>