<?xml version="1.0" encoding="utf-8"?>
<svg width="800px" height="800px" viewBox="0 0 64 64" aria-hidden="true" role="img" class="iconify iconify--emojione" preserveAspectRatio="xMidYMid meet" xmlns="http://www.w3.org/2000/svg" xmlns:bx="https://boxy-svg.com">
  <defs/>
  <g fill="#ffca28">
    <path d="M20.5 59.7l7-7.2c-2.5-.5-4.8-1.5-6.9-2.9l-.1 10.1"/>
    <path d="M43.5 4.3l-7 7.2c2.5.5 4.8 1.5 6.9 2.9l.1-10.1"/>
    <path d="M11.5 36.5l-7.2 7l10.1-.1C13 41.3 12 39 11.5 36.5"/>
    <path d="M52.5 27.5l7.2-7l-10.1.1c1.4 2.1 2.4 4.4 2.9 6.9"/>
    <path d="M14.4 20.6l-10.1-.1l7.2 7c.5-2.5 1.5-4.8 2.9-6.9"/>
    <path d="M49.6 43.4l10.1.1l-7.2-7c-.5 2.5-1.5 4.8-2.9 6.9"/>
    <path d="M27.5 11.5l-7-7.2l.1 10.1c2.1-1.4 4.4-2.4 6.9-2.9"/>
    <path d="M36.5 52.5l7 7.2l-.1-10.1C41.3 51 39 52 36.5 52.5"/>
    <path d="M14.8 44l-4 9.3l9.3-4C18 47.8 16.2 46 14.8 44"/>
    <path d="M49.2 20l4-9.3l-9.3 4c2.1 1.5 3.9 3.3 5.3 5.3"/>
    <path d="M11 32c0-1.3.1-2.5.4-3.7L2 32l9.4 3.7c-.3-1.2-.4-2.4-.4-3.7"/>
    <path d="M62 32l-9.4-3.7c.2 1.2.4 2.5.4 3.7c0 1.3-.1 2.5-.4 3.7L62 32"/>
    <path d="M20 14.8l-9.3-4l4 9.3c1.5-2.1 3.3-3.9 5.3-5.3"/>
    <path d="M44 49.2l9.3 4l-4-9.3C47.8 46 46 47.8 44 49.2"/>
    <path d="M35.7 11.4L32 2l-3.7 9.4c1.2-.2 2.5-.4 3.7-.4c1.3 0 2.5.1 3.7.4"/>
    <path d="M28.3 52.6L32 62l3.7-9.4c-1.2.3-2.4.4-3.7.4c-1.3 0-2.5-.1-3.7-.4"/>
    <path d="M32 13c-10.5 0-19 8.5-19 19s8.5 19 19 19s19-8.5 19-19s-8.5-19-19-19M20.4 30.7c1.2-3.2 3-4.9 4.7-4.9s3.5 1.6 4.7 4.9c.1.3-.5.9-.8.6c-1.1-1.2-2.5-1.7-3.9-1.7s-2.8.5-3.9 1.7c-.4.4-1-.2-.8-.6m20.3 7.5C39.1 40.8 36 43 32 43c-4 0-7.2-2.3-8.7-4.8c-.4-.7.1-1.4.8-1c5.1 3.6 10.8 3.6 15.9 0c.6-.4 1.1.4.7 1m2.2-6.9c-1.1-1.2-2.5-1.7-3.9-1.7s-2.8.5-3.9 1.7c-.3.3-.9-.3-.8-.6c1.2-3.2 3-4.9 4.7-4.9c1.8 0 3.5 1.6 4.7 4.9c.1.4-.5 1-.8.6">
    </path>
    <path d="M 32 13 C 21.5 13 13 21.5 13 32 C 13 42.5 21.5 51 32 51 C 42.5 51 51 42.5 51 32 C 51 21.5 42.5 13 32 13 M 36.5 40.15 C 36.5 40.15 36 43 32 43 C 28 43 26.8 39.473 27.5 39.873 C 32.672 42.028 31.111 42.028 36.5 40.017" >
    </path>
    <g transform="matrix(0.137404, 0, 0, 0.135661, 55.683784, -1.750002)" >
      <path d="M -63.477 184.404 C -57.43 199.165 -282.311 201.297 -276.264 186.536 L -281.715 185.608 C -283.562 191.326 -282.762 188.823 -283.046 192.491 C -283.154 193.887 -279.48 221.204 -279.48 222.243 C -279.48 248.296 -258.1 269.42 -232.127 269.42 C -206.424 269.42 -185.309 248.874 -184.876 223.2 L -184.649 223.2 C -184.649 214.59 -177.842 207.979 -169.475 207.979 C -161.108 207.979 -154.301 214.59 -154.301 223.2 L -154.153 223.2 C -153.718 248.877 -132.844 269.496 -107.139 269.496 C -81.166 269.496 -60.104 248.297 -60.104 222.244 C -60.104 215.848 -60.104 201.748 -60.104 190.673 L -60.124 183.517 L -63.477 184.404 Z" style="fill: rgb(0, 0, 0);"/>
      <path d="M -105.137 301.09 L -116.948 290.297 C -130.28 304.885 -149.246 313.251 -168.984 313.251 C -188.722 313.251 -207.687 304.885 -221.018 290.297 L -232.829 301.09 C -216.475 318.986 -193.205 329.251 -168.984 329.251 C -144.763 329.251 -121.492 318.986 -105.137 301.09 Z" style="fill: rgb(255, 255, 255);"/>
    </g>
  </g>
  <path d="M 26.255 28.693 Q 26.3 28.689 26.34 28.722 Q 26.385 28.758 26.399 28.821 Q 26.414 28.892 26.383 28.964 Q 26.349 29.045 26.27 29.096 Q 26.183 29.152 26.073 29.153 Q 25.954 29.154 25.847 29.088 Q 25.731 29.016 25.668 28.889 Q 25.6 28.753 25.612 28.596 Q 25.626 28.427 25.728 28.286 Q 25.836 28.135 26.011 28.06 Q 26.197 27.98 26.402 28.006 Q 26.619 28.034 26.795 28.172 Q 26.98 28.316 27.069 28.54 Q 27.161 28.774 27.12 29.028 Q 27.079 29.293 26.905 29.504 Q 26.724 29.724 26.451 29.825 Q 26.169 29.929 25.866 29.875 Q 25.553 29.819 25.307 29.609 Q 25.052 29.392 24.939 29.071 Q 24.823 28.739 24.891 28.389 Q 24.96 28.027 25.206 27.746 Q 25.46 27.456 25.83 27.331 Q 26.21 27.203 26.609 27.284 Q 27.019 27.368 27.336 27.65 Q 27.66 27.939 27.797 28.358 Q 27.938 28.788 27.842 29.235 Q 27.745 29.693 27.426 30.045 Q 27.101 30.404 26.633 30.553 Q 26.155 30.706 25.659 30.597 Q 25.153 30.485 24.766 30.131 Q 24.372 29.769 24.21 29.253 Q 24.046 28.726 24.169 28.182 Q 24.294 27.627 24.685 27.205 Q 24.946 26.924 25.29 26.747" style="fill: rgb(216, 216, 216); stroke: rgb(0, 0, 0); visibility: hidden;" bx:shape="spiral 26.186 28.76 0 2.203 46 1056 1@9d613a1e"/>
  <path d="M 40.094 28.533 Q 40.142 28.528 40.185 28.563 Q 40.234 28.603 40.249 28.671 Q 40.266 28.747 40.232 28.826 Q 40.195 28.913 40.11 28.969 Q 40.016 29.03 39.897 29.03 Q 39.768 29.031 39.652 28.959 Q 39.527 28.882 39.458 28.745 Q 39.384 28.598 39.398 28.427 Q 39.413 28.245 39.523 28.092 Q 39.64 27.929 39.83 27.847 Q 40.03 27.76 40.253 27.789 Q 40.487 27.819 40.678 27.968 Q 40.879 28.125 40.974 28.367 Q 41.074 28.62 41.03 28.895 Q 40.985 29.182 40.797 29.41 Q 40.601 29.649 40.306 29.757 Q 40 29.87 39.673 29.812 Q 39.334 29.751 39.067 29.524 Q 38.791 29.289 38.67 28.941 Q 38.544 28.582 38.617 28.203 Q 38.693 27.812 38.959 27.507 Q 39.233 27.194 39.633 27.058 Q 40.045 26.92 40.477 27.008 Q 40.921 27.098 41.263 27.404 Q 41.614 27.717 41.763 28.17 Q 41.915 28.635 41.812 29.119 Q 41.706 29.615 41.361 29.995 Q 41.009 30.384 40.503 30.546 Q 39.985 30.711 39.449 30.593 Q 38.901 30.472 38.483 30.089 Q 38.056 29.697 37.881 29.138 Q 37.703 28.568 37.836 27.979 Q 37.972 27.378 38.394 26.923 Q 38.677 26.618 39.049 26.427" style="fill: rgb(216, 216, 216); stroke: rgb(0, 0, 0); visibility: hidden;" bx:shape="spiral 40.019 28.605 0 2.384 46 1056 1@f678498a"/>
</svg>