<?xml version="1.0" encoding="utf-8"?>
<svg width="800px" height="800px" viewBox="0 0 64 64" aria-hidden="true" role="img" class="iconify iconify--emojione" preserveAspectRatio="xMidYMid meet" xmlns="http://www.w3.org/2000/svg" xmlnsBx="https://boxy-svg.com">
  <defs/>
  <g fill="#ffca28">
    <path d="M20.5 59.7l7-7.2c-2.5-.5-4.8-1.5-6.9-2.9l-.1 10.1"/>
    <path d="M43.5 4.3l-7 7.2c2.5.5 4.8 1.5 6.9 2.9l.1-10.1"/>
    <path d="M11.5 36.5l-7.2 7l10.1-.1C13 41.3 12 39 11.5 36.5"/>
    <path d="M52.5 27.5l7.2-7l-10.1.1c1.4 2.1 2.4 4.4 2.9 6.9"/>
    <path d="M14.4 20.6l-10.1-.1l7.2 7c.5-2.5 1.5-4.8 2.9-6.9"/>
    <path d="M49.6 43.4l10.1.1l-7.2-7c-.5 2.5-1.5 4.8-2.9 6.9"/>
    <path d="M27.5 11.5l-7-7.2l.1 10.1c2.1-1.4 4.4-2.4 6.9-2.9"/>
    <path d="M36.5 52.5l7 7.2l-.1-10.1C41.3 51 39 52 36.5 52.5"/>
    <path d="M14.8 44l-4 9.3l9.3-4C18 47.8 16.2 46 14.8 44"/>
    <path d="M49.2 20l4-9.3l-9.3 4c2.1 1.5 3.9 3.3 5.3 5.3"/>
    <path d="M11 32c0-1.3.1-2.5.4-3.7L2 32l9.4 3.7c-.3-1.2-.4-2.4-.4-3.7"/>
    <path d="M62 32l-9.4-3.7c.2 1.2.4 2.5.4 3.7c0 1.3-.1 2.5-.4 3.7L62 32"/>
    <path d="M20 14.8l-9.3-4l4 9.3c1.5-2.1 3.3-3.9 5.3-5.3"/>
    <path d="M44 49.2l9.3 4l-4-9.3C47.8 46 46 47.8 44 49.2"/>
    <path d="M35.7 11.4L32 2l-3.7 9.4c1.2-.2 2.5-.4 3.7-.4c1.3 0 2.5.1 3.7.4"/>
    <path d="M28.3 52.6L32 62l3.7-9.4c-1.2.3-2.4.4-3.7.4c-1.3 0-2.5-.1-3.7-.4"/>
    <path d="M 32 13 C 21.5 13 13 21.5 13 32 C 13 42.5 21.5 51 32 51 C 42.5 51 51 42.5 51 32 C 51 21.5 42.5 13 32 13 M 36.5 40.15 C 36.5 40.15 36 43 32 43 C 28 43 26.8 39.473 27.5 39.873 C 32.672 42.028 31.111 42.028 36.5 40.017" style="">
    </path>
  </g>
  <path 
  style="fill: rgb(216, 216, 216); stroke: rgb(0, 0, 0);" bxShape="spiral 26.186 28.76 0 2.203 46 1056 1@9d613a1e"
  d="M 26.255 28.693 Q 26.3 28.689 26.34 28.722 Q 26.385 28.758 26.399 28.821 Q 26.414 28.892 26.383 28.964 Q 26.349 29.045 26.27 29.096 Q 26.183 29.152 26.073 29.153 Q 25.954 29.154 25.847 29.088 Q 25.731 29.016 25.668 28.889 Q 25.6 28.753 25.612 28.596 Q 25.626 28.427 25.728 28.286 Q 25.836 28.135 26.011 28.06 Q 26.197 27.98 26.402 28.006 Q 26.619 28.034 26.795 28.172 Q 26.98 28.316 27.069 28.54 Q 27.161 28.774 27.12 29.028 Q 27.079 29.293 26.905 29.504 Q 26.724 29.724 26.451 29.825 Q 26.169 29.929 25.866 29.875 Q 25.553 29.819 25.307 29.609 Q 25.052 29.392 24.939 29.071 Q 24.823 28.739 24.891 28.389 Q 24.96 28.027 25.206 27.746 Q 25.46 27.456 25.83 27.331 Q 26.21 27.203 26.609 27.284 Q 27.019 27.368 27.336 27.65 Q 27.66 27.939 27.797 28.358 Q 27.938 28.788 27.842 29.235 Q 27.745 29.693 27.426 30.045 Q 27.101 30.404 26.633 30.553 Q 26.155 30.706 25.659 30.597 Q 25.153 30.485 24.766 30.131 Q 24.372 29.769 24.21 29.253 Q 24.046 28.726 24.169 28.182 Q 24.294 27.627 24.685 27.205 Q 24.946 26.924 25.29 26.747" />
  <path 
  style="fill: rgb(216, 216, 216); stroke: rgb(0, 0, 0);" bxShape="spiral 40.019 28.605 0 2.384 46 1056 1@f678498a"
  d="M 40.094 28.533 Q 40.142 28.528 40.185 28.563 Q 40.234 28.603 40.249 28.671 Q 40.266 28.747 40.232 28.826 Q 40.195 28.913 40.11 28.969 Q 40.016 29.03 39.897 29.03 Q 39.768 29.031 39.652 28.959 Q 39.527 28.882 39.458 28.745 Q 39.384 28.598 39.398 28.427 Q 39.413 28.245 39.523 28.092 Q 39.64 27.929 39.83 27.847 Q 40.03 27.76 40.253 27.789 Q 40.487 27.819 40.678 27.968 Q 40.879 28.125 40.974 28.367 Q 41.074 28.62 41.03 28.895 Q 40.985 29.182 40.797 29.41 Q 40.601 29.649 40.306 29.757 Q 40 29.87 39.673 29.812 Q 39.334 29.751 39.067 29.524 Q 38.791 29.289 38.67 28.941 Q 38.544 28.582 38.617 28.203 Q 38.693 27.812 38.959 27.507 Q 39.233 27.194 39.633 27.058 Q 40.045 26.92 40.477 27.008 Q 40.921 27.098 41.263 27.404 Q 41.614 27.717 41.763 28.17 Q 41.915 28.635 41.812 29.119 Q 41.706 29.615 41.361 29.995 Q 41.009 30.384 40.503 30.546 Q 39.985 30.711 39.449 30.593 Q 38.901 30.472 38.483 30.089 Q 38.056 29.697 37.881 29.138 Q 37.703 28.568 37.836 27.979 Q 37.972 27.378 38.394 26.923 Q 38.677 26.618 39.049 26.427" />
</svg>