<?xml version="1.0"?>
<svg width="100" height="200" xmlns="http://www.w3.org/2000/svg" xmlnsSvg="http://www.w3.org/2000/svg" version="1.1" xmlSpace="preserve">
 <g class="layer">
  <g id="svg_10">
   <g id="svg_11">
    <path fill="#009cdb80" d="m65.94,158.86l-8.58,-9.81c-3.93,-4.5 -6.14,-11.19 -6.07,-18.37c0.06,-7.17 2.41,-13.78 6.42,-18.12c11.2,-12.13 17.83,-30.58 18.17,-50.64c0.34,-20.04 -5.64,-38.94 -16.41,-51.83c-6.3,-7.55 -15.71,-6.38 -21,2.6c-5.29,8.97 -4.48,22.37 1.83,29.9c3.81,4.54 5.92,11.22 5.8,18.29c-0.13,7.08 -2.46,13.59 -6.42,17.88c-11.37,12.3 -17.99,31.02 -18.19,51.35c-0.2,20.32 6.08,39.29 17.21,52.02l8.57,9.81c2.76,3.15 6.05,4.69 9.33,4.69c4.36,0 8.68,-2.72 11.63,-7.94c5.16,-9.13 4.13,-22.49 -2.28,-29.84z" id="svg_12"/>
   </g>
  </g>
 </g>
</svg>