<?xml version="1.0" encoding="UTF-8" standalone="no"?>
<!DOCTYPE svg PUBLIC "-//W3C//DTD SVG 1.1//EN" "http://www.w3.org/Graphics/SVG/1.1/DTD/svg11.dtd">
<svg width="100%" height="100%" viewBox="0 0 2481 2481" version="1.1" xmlns="http://www.w3.org/2000/svg" xmlns:xlink="http://www.w3.org/1999/xlink" xml:space="preserve" xmlns:serif="http://www.serif.com/" style="fill-rule:evenodd;clip-rule:evenodd;stroke-linecap:round;stroke-linejoin:round;stroke-miterlimit:1.5;">
    <g transform="matrix(1.54591,0,0,1.56834,-332.794,-688.644)">
        <path d="M958.373,1399.48C926.947,1426.81 763.96,1565.39 751.553,1579.56L424.482,1579.48C540.431,1466.82 659.977,1368.95 778.803,1283.99C807.89,1304.84 905.619,1365.88 958.373,1399.48ZM835.696,1244.23C835.697,1244.23 835.698,1244.23 835.7,1244.23C714.465,1163.41 581.073,1067.74 428.962,950.257L788.936,950.478C788.936,950.478 924.582,1048.34 1029.12,1122.95C1335.09,938.549 1580.29,856.795 1762.02,800.238C1848.61,773.292 2310.35,638.288 2878.32,637.737C3139.28,637.484 3265.53,646.958 3301.8,649.647C3196.21,651.495 3090.57,647.75 2984.98,649.598C2934.87,650.475 2884.84,654.183 2834.85,657.82C2021.59,716.987 1475.4,1000.75 1148.47,1237.96C1146.22,1239.59 1145.79,1239.92 1143.05,1241.91C1509.54,1491.36 2166.19,1812.2 3195.85,1809.4C3155,1827.5 2513.72,1884.28 1804.34,1685.8C1517.87,1605.65 1289.19,1522.47 1001.35,1349.44C1001.35,1349.44 1001.35,1349.44 1001.35,1349.44L835.696,1244.23Z" style="fill:rgb(218,37,29);stroke:rgb(242,13,13);stroke-width:0.64px;"/>
    </g>
</svg>
